<?xml version="1.0" encoding="UTF-8" standalone="no"?>
<!DOCTYPE svg PUBLIC "-//W3C//DTD SVG 1.1//EN" "http://www.w3.org/Graphics/SVG/1.1/DTD/svg11.dtd">
<svg width="100%" height="100%" viewBox="0 0 350 160" version="1.1" xmlns="http://www.w3.org/2000/svg" xmlns:xlink="http://www.w3.org/1999/xlink" xml:space="preserve" xmlns:serif="http://www.serif.com/" style="fill-rule:evenodd;clip-rule:evenodd;stroke-linejoin:round;stroke-miterlimit:1.41421;">
    <g transform="matrix(1.13223,0,0,0.985612,-65.3306,-76.705)">
        <path d="M293.517,97.81C300.598,92.994 309.402,92.994 316.483,97.81C325.021,103.616 336.604,111.494 345.038,117.23C351.892,121.891 356.096,130.362 356.095,139.511C356.095,151.29 356.095,167.71 356.095,179.489C356.096,188.638 351.892,197.109 345.038,201.77C336.604,207.506 325.021,215.384 316.483,221.19C309.402,226.006 300.598,226.006 293.517,221.19C284.979,215.384 273.396,207.506 264.962,201.77C258.108,197.109 253.904,188.638 253.905,179.489C253.905,167.71 253.905,151.29 253.905,139.511C253.904,130.362 258.108,121.891 264.962,117.23C273.396,111.494 284.979,103.616 293.517,97.81Z" style="fill:white;"/>
    </g>
    <g id="Swagger" transform="matrix(1.58045,0,0,1.55,-54.4016,-184.95)">
        <g transform="matrix(1.40445,0,0,1.40445,-35.2056,-63.4094)">
            <circle cx="83.453" cy="165.453" r="28.453" style="fill:white;"/>
        </g>
        <g transform="matrix(1.21087,0,0,1.21087,-18.598,-31.3818)">
            <circle cx="83.453" cy="165.453" r="28.453" style="fill:rgb(108,155,0);"/>
        </g>
        <g transform="matrix(1.0806,0,0,0.866805,-7.863,21.6379)">
            <path d="M60.336,168.039C61.539,168.008 62.52,167.684 63.277,167.066C64.035,166.449 64.539,165.602 64.789,164.523C65.039,163.445 65.172,161.602 65.188,158.992C65.203,156.383 65.25,154.664 65.328,153.836C65.469,152.523 65.73,151.469 66.113,150.672C66.496,149.875 66.969,149.238 67.531,148.762C68.094,148.285 68.813,147.922 69.688,147.672C70.281,147.516 71.25,147.438 72.594,147.438L73.906,147.438L73.906,151.117L73.18,151.117C71.555,151.117 70.477,151.41 69.945,151.996C69.414,152.582 69.148,153.891 69.148,155.922C69.148,160.016 69.063,162.602 68.891,163.68C68.609,165.352 68.129,166.641 67.449,167.547C66.77,168.453 65.703,169.258 64.25,169.961C65.969,170.68 67.215,171.777 67.988,173.254C68.762,174.73 69.148,177.148 69.148,180.508C69.148,183.555 69.18,185.367 69.242,185.945C69.367,187.008 69.684,187.75 70.191,188.172C70.699,188.594 71.695,188.805 73.18,188.805L73.906,188.805L73.906,192.484L72.594,192.484C71.063,192.484 69.953,192.359 69.266,192.109C68.266,191.75 67.438,191.168 66.781,190.363C66.125,189.559 65.699,188.539 65.504,187.305C65.309,186.07 65.203,184.047 65.188,181.234C65.172,178.422 65.039,176.477 64.789,175.398C64.539,174.32 64.035,173.469 63.277,172.844C62.52,172.219 61.539,171.891 60.336,171.859L60.336,168.039Z" style="fill:white;fill-rule:nonzero;"/>
        </g>
        <g transform="matrix(-1.17214,0,0,0.866805,178.628,21.6379)">
            <path d="M60.336,168.039C61.539,168.008 62.52,167.684 63.277,167.066C64.035,166.449 64.539,165.602 64.789,164.523C65.039,163.445 65.172,161.602 65.188,158.992C65.203,156.383 65.25,154.664 65.328,153.836C65.469,152.523 65.73,151.469 66.113,150.672C66.496,149.875 66.969,149.238 67.531,148.762C68.094,148.285 68.813,147.922 69.688,147.672C70.281,147.516 71.25,147.438 72.594,147.438L73.906,147.438L73.906,151.117L73.18,151.117C71.555,151.117 70.477,151.41 69.945,151.996C69.414,152.582 69.148,153.891 69.148,155.922C69.148,160.016 69.063,162.602 68.891,163.68C68.609,165.352 68.129,166.641 67.449,167.547C66.77,168.453 65.703,169.258 64.25,169.961C65.969,170.68 67.215,171.777 67.988,173.254C68.762,174.73 69.148,177.148 69.148,180.508C69.148,183.555 69.18,185.367 69.242,185.945C69.367,187.008 69.684,187.75 70.191,188.172C70.699,188.594 71.695,188.805 73.18,188.805L73.906,188.805L73.906,192.484L72.594,192.484C71.063,192.484 69.953,192.359 69.266,192.109C68.266,191.75 67.438,191.168 66.781,190.363C66.125,189.559 65.699,188.539 65.504,187.305C65.309,186.07 65.203,184.047 65.188,181.234C65.172,178.422 65.039,176.477 64.789,175.398C64.539,174.32 64.035,173.469 63.277,172.844C62.52,172.219 61.539,171.891 60.336,171.859L60.336,168.039Z" style="fill:white;fill-rule:nonzero;"/>
        </g>
        <g transform="matrix(1,0,0,1,-1,0)">
            <circle cx="83" cy="169" r="3" style="fill:white;"/>
        </g>
        <g transform="matrix(1,0,0,1,-11,0)">
            <circle cx="83" cy="169" r="3" style="fill:white;"/>
        </g>
        <g transform="matrix(1,0,0,1,9,0)">
            <circle cx="83" cy="169" r="3" style="fill:white;"/>
        </g>
    </g>
    <g id="UML" transform="matrix(1.58045,0,0,1.55,-49.4016,-184.95)">
        <g transform="matrix(0.361905,0,0,0.361905,113.943,109.476)">
            <path d="M209.135,133.923L218,188L229.664,146.011L258,162.698L258,275L236,262.045L236,205L222.382,254.026L209.418,246.392L196,184L194.447,237.576L177,227.302L177,115L209.135,133.923Z" style="fill:rgb(201,175,0);"/>
        </g>
        <g transform="matrix(0.361905,0,0,0.361905,113.943,109.476)">
            <path d="M180,113L209,97L259,126C259,126 272.826,132.903 289,123C303.358,114.209 291,108 291,108L239,77L262,65L312,92C312,92 347.741,108.334 307,134C264.44,160.812 238,147 238,147L180,113Z" style="fill:rgb(155,11,55);"/>
        </g>
        <g transform="matrix(0.361905,0,0,0.361905,113.943,109.476)">
            <path d="M290,230L344,197.535L344,225.302L263,274L263,161.698L290,145.465L290,230Z" style="fill:rgb(65,57,69);"/>
        </g>
    </g>
    <g transform="matrix(1,0,0,1,-33,34)">
        <g transform="matrix(7.45921e-17,1.21818,-1.55041,9.49354e-17,294.241,-248.6)">
            <path d="M235.355,34.458C236.074,34.17 236.926,34.17 237.645,34.458C240.52,35.608 248.269,38.707 254.625,41.25C255.665,41.666 256.206,42.588 255.934,43.48C255.662,44.371 254.647,45 253.48,45C243.722,45 229.278,45 219.52,45C218.353,45 217.338,44.371 217.066,43.48C216.794,42.588 217.335,41.666 218.375,41.25C224.731,38.707 232.48,35.608 235.355,34.458Z" style="fill:white;"/>
        </g>
        <g transform="matrix(1,0,0,0.68,49,8.56)">
            <path d="M171,36.676C171,35.701 170.737,34.766 170.268,34.077C169.799,33.387 169.163,33 168.5,33C167.837,33 167.201,33.387 166.732,34.077C166.263,34.766 166,35.701 166,36.676C166,41.41 166,49.59 166,54.324C166,55.299 166.263,56.234 166.732,56.923C167.201,57.613 167.837,58 168.5,58C169.163,58 169.799,57.613 170.268,56.923C170.737,56.234 171,55.299 171,54.324C171,49.59 171,41.41 171,36.676Z" style="fill:white;"/>
        </g>
        <g transform="matrix(1,0,0,0.68,39,8.56)">
            <path d="M171,36.676C171,35.701 170.737,34.766 170.268,34.077C169.799,33.387 169.163,33 168.5,33C167.837,33 167.201,33.387 166.732,34.077C166.263,34.766 166,35.701 166,36.676C166,41.41 166,49.59 166,54.324C166,55.299 166.263,56.234 166.732,56.923C167.201,57.613 167.837,58 168.5,58C169.163,58 169.799,57.613 170.268,56.923C170.737,56.234 171,55.299 171,54.324C171,49.59 171,41.41 171,36.676Z" style="fill:white;"/>
        </g>
        <g transform="matrix(1,0,0,0.68,29,8.56)">
            <path d="M171,36.676C171,35.701 170.737,34.766 170.268,34.077C169.799,33.387 169.163,33 168.5,33C167.837,33 167.201,33.387 166.732,34.077C166.263,34.766 166,35.701 166,36.676C166,41.41 166,49.59 166,54.324C166,55.299 166.263,56.234 166.732,56.923C167.201,57.613 167.837,58 168.5,58C169.163,58 169.799,57.613 170.268,56.923C170.737,56.234 171,55.299 171,54.324C171,49.59 171,41.41 171,36.676Z" style="fill:white;"/>
        </g>
        <g transform="matrix(1,0,0,0.68,19,8.56)">
            <path d="M171,36.676C171,35.701 170.737,34.766 170.268,34.077C169.799,33.387 169.163,33 168.5,33C167.837,33 167.201,33.387 166.732,34.077C166.263,34.766 166,35.701 166,36.676C166,41.41 166,49.59 166,54.324C166,55.299 166.263,56.234 166.732,56.923C167.201,57.613 167.837,58 168.5,58C169.163,58 169.799,57.613 170.268,56.923C170.737,56.234 171,55.299 171,54.324C171,49.59 171,41.41 171,36.676Z" style="fill:white;"/>
        </g>
    </g>
</svg>
